<?xml version="1.0" encoding="UTF-8"?> <svg xmlns="http://www.w3.org/2000/svg" width="260" height="85" viewBox="0 0 260 85" fill="none"><path fill-rule="evenodd" clip-rule="evenodd" d="M116.63 25.7978C117.855 22.282 117.083 20.1513 114.313 19.4055C111.17 18.6597 101.554 27.1296 85.4671 44.8151C82.8036 47.7449 79.8205 51.0743 76.5178 54.8031C75.3458 56.1349 73.9875 57.6797 72.4426 59.4376L70.5249 61.595L69.646 62.6338L68.767 63.6725C63.4933 69.6387 60.5902 72.8083 60.0575 73.1812C59.8976 72.7017 60.6168 71.3167 62.2149 69.0261C63.813 66.6823 66.3699 63.0866 69.8857 58.239L72.123 55.1228L74.3604 51.9266C76.1715 49.4229 77.7163 47.2655 78.9948 45.4543C86.5058 34.8537 91.2202 27.4492 93.1379 23.2409C93.7771 21.8559 93.8038 20.5774 93.2178 19.4055C92.6851 18.2868 91.8062 17.5144 90.5809 17.0883C86.1063 15.4902 77.6364 19.9382 65.1713 30.4323C71.1908 18.5532 70.6581 10.0567 63.5733 4.94278C58.2996 1.10737 51.481 -0.357545 43.1177 0.54804C35.4469 1.45362 27.9092 4.11711 20.5048 8.53848C13.047 13.0131 7.56025 18.1803 4.04445 24.0399C0.155769 30.5388 -0.483467 36.6915 2.12674 42.4979C3.67156 45.9071 6.60139 48.0645 10.9162 48.9701C15.3909 49.9822 20.2917 49.4229 25.6186 47.2921C25.9383 47.1323 26.0714 46.8393 26.0182 46.4132C25.9116 45.987 25.6186 45.8006 25.1392 45.8539C19.0665 46.5996 14.6451 46.8127 11.8751 46.4931C8.03967 46.0137 5.50937 44.5221 4.28416 42.0184C2.20665 37.7569 3.21877 32.6164 7.32053 26.5969C11.1027 21.1101 16.5894 16.0495 23.7808 11.415C31.1321 6.72731 38.1903 3.82412 44.9555 2.70546C52.5731 1.42699 58.3262 2.73209 62.2149 6.62077C68.7138 13.0131 66.5297 23.747 55.6627 38.8223C51.5077 42.7109 48.5779 45.3212 46.8732 46.6529C42.0257 50.5948 37.5777 54.3504 33.5292 57.9194C28.362 62.5539 24.2336 66.6024 21.144 70.0649C20.8244 70.4378 20.5048 70.784 20.1851 71.1037L19.0665 72.5419C18.0544 73.7139 17.2553 74.8325 16.6693 75.8979C14.8582 78.7745 14.4853 80.8254 15.5507 82.0506C17.8946 84.7673 24.7131 80.1861 36.0062 68.307C39.7884 64.365 43.8369 59.8371 48.1517 54.7232C49.6965 52.8588 51.1614 51.0743 52.5464 49.3696C53.6651 47.9846 54.4908 46.9459 55.0235 46.2534C57.1543 43.5366 58.9654 40.9797 60.457 38.5825C69.4595 30.9117 75.6921 25.7978 79.1546 23.2409C84.5881 19.2989 87.9707 17.9139 89.3025 19.0859C90.9538 20.5241 86.1329 29.0207 74.8398 44.5754L71.5637 49.05L68.3675 53.3649C65.8638 56.7741 63.9195 59.4909 62.5345 61.5151C58.6458 67.0552 56.5949 70.5443 56.3819 71.9826C56.222 72.9415 56.5417 73.7671 57.3407 74.4596C58.0865 75.1521 58.9654 75.4718 59.9776 75.4185C61.5756 74.4596 65.0648 71.077 70.445 65.2706C72.416 63.1398 74.9996 60.2899 78.1958 56.7209L80.2733 54.4036L82.3508 52.0065L86.6656 47.2921C101.634 30.6187 110.371 22.1222 112.874 21.8026C114.206 21.7493 113.54 24.5194 110.877 30.1127C109.811 32.35 108.346 35.2266 106.482 38.7424C105.363 40.8731 103.579 44.1759 101.128 48.6505C100.755 49.343 100.169 50.3818 99.3704 51.7668L98.8111 52.6457L98.2518 53.5247L97.0532 55.5223C95.0822 58.9315 93.5108 61.8614 92.3388 64.3118C88.8231 71.8228 88.0506 77.2829 90.0216 80.6922C91.1403 82.5566 92.7916 83.8085 94.9757 84.4477C96.8934 84.9804 98.5714 84.9271 100.01 84.2879C100.383 84.1813 100.569 83.9683 100.569 83.6486C100.516 83.3823 100.276 83.2225 99.8499 83.1692C92.4454 83.2225 90.5809 78.5614 94.2566 69.1859C95.4818 66.0963 97.3728 62.3408 99.9298 57.9194C100.356 57.1204 100.862 56.2681 101.448 55.3625L102.167 54.1639L102.806 53.0452C103.872 51.2341 104.591 50.0089 104.964 49.3696L106.722 46.1735L108.559 42.8974C109.838 40.5535 110.93 38.476 111.836 36.6648C114.126 32.1902 115.724 28.5679 116.63 25.7978ZM29.534 69.9051C22.5024 77.4161 18.4006 80.9053 17.2287 80.3726C16.4296 79.9997 18.9866 76.7502 24.8995 70.6242C31.2386 64.0188 38.4833 57.2536 46.6335 50.3285C43.8102 53.7378 41.1201 56.9073 38.5632 59.8371C35.1539 63.7258 32.1442 67.0818 29.534 69.9051ZM131.691 55.4435C133.553 51.1615 136.247 46.0739 139.772 40.1806C141.104 37.89 142.675 35.3065 144.486 32.4299L146.884 28.5945L149.201 24.9988C156.499 13.4926 159.988 6.72731 159.668 4.70307C160.467 4.33018 161.16 4.5699 161.746 5.42221C162.279 6.27452 162.465 7.20674 162.305 8.21887C162.092 9.97676 157.804 17.328 149.441 30.2725C145.392 36.505 142.223 41.6988 139.932 45.8539C136.736 51.7135 134.578 56.6676 133.46 60.7161C132.874 63.0599 132.954 64.4982 133.699 65.0309C134.712 65.7234 137.348 64.7646 141.61 62.1544C144.728 60.2833 147.59 58.2125 150.195 55.9421C151.449 53.3032 153.366 50.4731 155.945 47.4519C159.993 42.6577 163.376 40.5003 166.092 40.9797C167.637 41.1928 168.703 41.7255 169.289 42.5778C171.419 39.7545 173.124 37.7569 174.403 36.5849C174.935 36.3719 175.521 36.3719 176.16 36.5849C176.853 36.798 177.359 37.1975 177.679 37.7835C176.933 38.9022 176.001 40.6068 174.882 42.8974C173.497 45.7207 172.325 48.3842 171.366 50.8878C168.649 58.1325 168.436 62.3674 170.727 63.5926C171.792 64.1253 174.269 62.98 178.158 60.1567C181.78 57.5465 184.364 55.2293 185.909 53.2051C186.495 53.1518 186.868 53.3915 187.027 53.9242C180.901 61.9146 175.521 65.9099 170.887 65.9099C169.768 65.9099 168.783 65.6702 167.93 65.1907C166.918 64.658 166.306 63.9123 166.092 62.9534C165.027 59.0114 166.252 53.1784 169.768 45.4543L168.729 46.9725L167.611 48.5706L165.373 51.8467C163.615 54.2971 162.071 56.3213 160.739 57.9194C157.276 62.181 154.719 64.2052 153.068 63.9922C151.683 63.7791 150.591 63.273 149.792 62.474C149.06 61.785 148.728 60.9741 148.797 60.0414C147.197 61.4868 145.334 62.9369 143.208 64.3917C137.615 68.2271 133.646 69.2392 131.302 67.428C129.917 66.4159 129.438 64.4449 129.864 61.5151C129.972 60.7917 130.13 60.0438 130.337 59.2712C126.542 63.0728 122.98 64.9927 119.652 65.0309C117.309 65.0309 115.71 64.0454 114.858 62.0745C113.739 59.6241 114.618 55.762 117.495 50.4883C117.974 49.636 118.56 48.6505 119.253 47.5318L120.052 46.1735L120.851 44.8151C122.076 42.8441 122.769 41.5124 122.929 40.8199C123.568 40.6068 124.207 40.5802 124.846 40.74C125.645 40.8998 126.205 41.2727 126.524 41.8586C126.258 42.6577 125.379 44.2558 123.887 46.6529L122.929 48.1711L121.97 49.7692C121.171 51.0476 120.505 52.1663 119.972 53.1252C116.882 58.6652 116.563 61.9146 119.013 62.8735C120.079 63.4595 122.502 62.4207 126.284 59.7572C128.482 58.2257 130.284 56.7878 131.691 55.4435ZM125.485 36.4251C125.592 37.1709 125.965 37.5971 126.604 37.7036C127.297 37.8634 128.016 37.677 128.762 37.1443C129.401 36.6648 129.933 36.0256 130.36 35.2266C130.786 34.3742 130.972 33.6551 130.919 33.0691C130.866 32.3234 130.493 31.8972 129.8 31.7907C129.108 31.6309 128.415 31.8173 127.723 32.35C127.03 32.8294 126.471 33.4687 126.045 34.2677C125.619 35.0668 125.432 35.7859 125.485 36.4251ZM159.301 55.9218C156.104 59.8638 153.894 61.7815 152.669 61.6749C151.443 61.5151 152.216 59.1446 154.986 54.5634C156.797 51.6869 158.688 49.1566 160.659 46.9725C162.896 44.4156 164.681 43.0306 166.013 42.8175C167.185 42.5511 167.93 42.924 168.25 43.9361L165.933 46.9725L163.695 50.0888C161.831 52.6457 160.366 54.5901 159.301 55.9218ZM114.652 81.5778H115.684V78.4694H117.151C117.823 78.4694 118.386 78.3346 118.841 78.065C119.299 77.7914 119.643 77.4313 119.873 76.9846C120.106 76.538 120.223 76.0511 120.223 75.524C120.223 74.9969 120.11 74.5181 119.885 74.0875C119.659 73.657 119.319 73.315 118.865 73.0615C118.41 72.804 117.839 72.6752 117.151 72.6752H114.652V81.5778ZM115.684 77.5641H117.024C117.507 77.5641 117.907 77.4796 118.225 77.3106C118.547 77.1375 118.786 76.8981 118.943 76.5923C119.104 76.2865 119.185 75.9304 119.185 75.524C119.185 75.1136 119.108 74.7635 118.955 74.4738C118.802 74.1841 118.567 73.9628 118.249 73.8099C117.931 73.657 117.523 73.5805 117.024 73.5805H115.684V77.5641ZM121.595 72.6752V81.5778H122.603V77.7753H124.504C124.959 77.7753 125.311 77.8719 125.561 78.065C125.81 78.2582 125.935 78.5519 125.935 78.9462V79.8998V80.8475C125.935 81.0245 125.949 81.1774 125.977 81.3062C126.005 81.4349 126.033 81.5255 126.062 81.5778H127.1C127.064 81.5335 127.031 81.445 127.003 81.3122C126.975 81.1754 126.961 81.0205 126.961 80.8475V79.8335V78.8195C126.961 78.4614 126.891 78.1757 126.75 77.9624C126.609 77.7492 126.432 77.5922 126.219 77.4916C126.009 77.387 125.796 77.3267 125.579 77.3106C125.792 77.2864 126.023 77.1838 126.273 77.0027C126.526 76.8217 126.742 76.5662 126.919 76.2362C127.1 75.9022 127.19 75.4979 127.19 75.0231C127.19 74.2304 126.977 73.6409 126.55 73.2546C126.124 72.8683 125.502 72.6752 124.685 72.6752H121.595ZM122.603 76.87H124.516C124.814 76.87 125.084 76.7975 125.325 76.6527C125.571 76.5038 125.766 76.2986 125.911 76.037C126.06 75.7715 126.134 75.4616 126.134 75.1076C126.134 74.5563 125.989 74.164 125.699 73.9306C125.41 73.6972 124.991 73.5805 124.444 73.5805H122.603V76.87ZM130.663 81.3907C131.098 81.5959 131.575 81.6985 132.094 81.6985C132.613 81.6985 133.09 81.5959 133.524 81.3907C133.959 81.1854 134.335 80.8877 134.653 80.4974C134.975 80.1031 135.222 79.6222 135.395 79.0549C135.572 78.4875 135.661 77.8417 135.661 77.1174C135.661 76.3931 135.572 75.7493 135.395 75.186C135.222 74.6187 134.975 74.1419 134.653 73.7556C134.335 73.3653 133.959 73.0695 133.524 72.8683C133.09 72.6671 132.613 72.5666 132.094 72.5666C131.579 72.5666 131.104 72.6671 130.67 72.8683C130.235 73.0695 129.857 73.3653 129.535 73.7556C129.217 74.1419 128.969 74.6187 128.792 75.186C128.619 75.7493 128.533 76.3931 128.533 77.1174C128.533 77.8417 128.619 78.4875 128.792 79.0549C128.969 79.6222 129.217 80.1031 129.535 80.4974C129.857 80.8877 130.233 81.1854 130.663 81.3907ZM133.404 80.3646C133.025 80.6342 132.589 80.769 132.094 80.769C131.607 80.769 131.173 80.6362 130.79 80.3706C130.412 80.101 130.114 79.6966 129.897 79.1575C129.684 78.6143 129.577 77.9342 129.577 77.1174C129.577 76.3006 129.684 75.6246 129.897 75.0894C130.114 74.5543 130.412 74.1559 130.79 73.8944C131.173 73.6328 131.607 73.5021 132.094 73.5021C132.585 73.5021 133.019 73.6328 133.398 73.8944C133.776 74.1559 134.072 74.5543 134.285 75.0894C134.502 75.6246 134.611 76.3006 134.611 77.1174C134.611 77.9302 134.504 78.6082 134.291 79.1514C134.078 79.6906 133.782 80.095 133.404 80.3646ZM138.147 73.5805H141.955V72.6752H137.121V81.5778H138.147V77.6425H141.418V76.7372H138.147V73.5805ZM144.412 73.5805H148.245V72.6752H143.38V81.5778H148.245V80.6724H144.412V77.5641H147.575V76.6587H144.412V73.5805ZM151.057 81.4088C151.495 81.6019 152.023 81.6985 152.638 81.6985C153.246 81.6985 153.767 81.6059 154.201 81.4208C154.64 81.2357 154.976 80.9682 155.209 80.6181C155.447 80.268 155.565 79.8455 155.565 79.3506C155.565 78.8557 155.463 78.4453 155.258 78.1193C155.056 77.7934 154.765 77.5218 154.382 77.3045C154.004 77.0832 153.552 76.8861 153.024 76.713C152.59 76.5682 152.204 76.4173 151.866 76.2604C151.528 76.0994 151.26 75.9063 151.063 75.6809C150.87 75.4516 150.773 75.1619 150.773 74.8118C150.773 74.3451 150.932 74.0091 151.25 73.8039C151.568 73.5986 152.018 73.496 152.602 73.496C153.21 73.496 153.672 73.6208 153.99 73.8702C154.308 74.1157 154.467 74.5322 154.467 75.1196V75.3248V75.53H155.499V75.3067V75.0774C155.499 74.514 155.378 74.0473 155.137 73.6771C154.899 73.3029 154.561 73.0253 154.123 72.8442C153.688 72.6591 153.175 72.5666 152.584 72.5666C152.025 72.5666 151.534 72.6531 151.111 72.8261C150.689 72.9991 150.359 73.2526 150.121 73.5866C149.888 73.9205 149.771 74.329 149.771 74.8118C149.771 75.3067 149.882 75.7272 150.103 76.0733C150.328 76.4153 150.634 76.703 151.021 76.9364C151.411 77.1697 151.854 77.3629 152.348 77.5158C152.787 77.6486 153.171 77.7954 153.501 77.9564C153.831 78.1133 154.089 78.3064 154.274 78.5358C154.463 78.7611 154.557 79.0448 154.557 79.3868C154.557 79.8737 154.395 80.2258 154.069 80.4431C153.743 80.6603 153.262 80.769 152.626 80.769C152.01 80.769 151.542 80.6342 151.22 80.3646C150.898 80.091 150.737 79.6464 150.737 79.0307V78.8315V78.6384H149.705V78.8436V79.0488C149.705 79.6363 149.822 80.1272 150.055 80.5215C150.288 80.9158 150.622 81.2116 151.057 81.4088ZM158.142 81.4088C158.58 81.6019 159.107 81.6985 159.723 81.6985C160.331 81.6985 160.852 81.6059 161.286 81.4208C161.725 81.2357 162.061 80.9682 162.294 80.6181C162.532 80.268 162.65 79.8455 162.65 79.3506C162.65 78.8557 162.548 78.4453 162.342 78.1193C162.141 77.7934 161.849 77.5218 161.467 77.3045C161.089 77.0832 160.636 76.8861 160.109 76.713C159.675 76.5682 159.288 76.4173 158.95 76.2604C158.612 76.0994 158.345 75.9063 158.148 75.6809C157.954 75.4516 157.858 75.1619 157.858 74.8118C157.858 74.3451 158.017 74.0091 158.335 73.8039C158.653 73.5986 159.103 73.496 159.687 73.496C160.294 73.496 160.757 73.6208 161.075 73.8702C161.393 74.1157 161.552 74.5322 161.552 75.1196V75.3248V75.53H162.584V75.3067V75.0774C162.584 74.514 162.463 74.0473 162.222 73.6771C161.984 73.3029 161.646 73.0253 161.208 72.8442C160.773 72.6591 160.26 72.5666 159.669 72.5666C159.109 72.5666 158.618 72.6531 158.196 72.8261C157.773 72.9991 157.443 73.2526 157.206 73.5866C156.973 73.9205 156.856 74.329 156.856 74.8118C156.856 75.3067 156.967 75.7272 157.188 76.0733C157.413 76.4153 157.719 76.703 158.105 76.9364C158.496 77.1697 158.938 77.3629 159.433 77.5158C159.872 77.6486 160.256 77.7954 160.586 77.9564C160.916 78.1133 161.174 78.3064 161.359 78.5358C161.548 78.7611 161.642 79.0448 161.642 79.3868C161.642 79.8737 161.479 80.2258 161.153 80.4431C160.827 80.6603 160.347 80.769 159.711 80.769C159.095 80.769 158.626 80.6342 158.305 80.3646C157.983 80.091 157.822 79.6464 157.822 79.0307V78.8315V78.6384H156.79V78.8436V79.0488C156.79 79.6363 156.906 80.1272 157.14 80.5215C157.373 80.9158 157.707 81.2116 158.142 81.4088ZM164.158 72.6752V81.5778H165.172V72.6752H164.158ZM168.811 81.3907C169.245 81.5959 169.722 81.6985 170.241 81.6985C170.76 81.6985 171.237 81.5959 171.672 81.3907C172.106 81.1854 172.482 80.8877 172.8 80.4974C173.122 80.1031 173.37 79.6222 173.543 79.0549C173.72 78.4875 173.808 77.8417 173.808 77.1174C173.808 76.3931 173.72 75.7493 173.543 75.186C173.37 74.6187 173.122 74.1419 172.8 73.7556C172.482 73.3653 172.106 73.0695 171.672 72.8683C171.237 72.6671 170.76 72.5666 170.241 72.5666C169.726 72.5666 169.251 72.6671 168.817 72.8683C168.382 73.0695 168.004 73.3653 167.682 73.7556C167.364 74.1419 167.117 74.6187 166.94 75.186C166.767 75.7493 166.68 76.3931 166.68 77.1174C166.68 77.8417 166.767 78.4875 166.94 79.0549C167.117 79.6222 167.364 80.1031 167.682 80.4974C168.004 80.8877 168.38 81.1854 168.811 81.3907ZM171.551 80.3646C171.173 80.6342 170.736 80.769 170.241 80.769C169.754 80.769 169.32 80.6362 168.937 80.3706C168.559 80.101 168.261 79.6966 168.044 79.1575C167.831 78.6143 167.724 77.9342 167.724 77.1174C167.724 76.3006 167.831 75.6246 168.044 75.0894C168.261 74.5543 168.559 74.1559 168.937 73.8944C169.32 73.6328 169.754 73.5021 170.241 73.5021C170.732 73.5021 171.167 73.6328 171.545 73.8944C171.923 74.1559 172.219 74.5543 172.432 75.0894C172.649 75.6246 172.758 76.3006 172.758 77.1174C172.758 77.9302 172.651 78.6082 172.438 79.1514C172.225 79.6906 171.929 80.095 171.551 80.3646ZM175.268 81.5778H176.27V73.4782L179.945 81.5778H181.653V72.6752H180.651V80.8137L176.952 72.6752H175.268V81.5778ZM185.33 72.651L182.88 81.5778H183.942L184.57 79.2178H187.683L188.306 81.5778H189.368L186.936 72.651H185.33ZM187.444 78.3125L186.133 73.3438L184.811 78.3125H187.444ZM190.592 72.6752V81.5778H195.137V80.6724H191.625V72.6752H190.592ZM201.417 81.3907C201.852 81.5959 202.329 81.6985 202.848 81.6985C203.367 81.6985 203.844 81.5959 204.278 81.3907C204.713 81.1854 205.089 80.8877 205.407 80.4974C205.729 80.1031 205.976 79.6222 206.149 79.0549C206.326 78.4875 206.415 77.8417 206.415 77.1174C206.415 76.3931 206.326 75.7493 206.149 75.186C205.976 74.6187 205.729 74.1419 205.407 73.7556C205.089 73.3653 204.713 73.0695 204.278 72.8683C203.844 72.6671 203.367 72.5666 202.848 72.5666C202.333 72.5666 201.858 72.6671 201.423 72.8683C200.989 73.0695 200.61 73.3653 200.289 73.7556C199.971 74.1419 199.723 74.6187 199.546 75.186C199.373 75.7493 199.287 76.3931 199.287 77.1174C199.287 77.8417 199.373 78.4875 199.546 79.0549C199.723 79.6222 199.971 80.1031 200.289 80.4974C200.61 80.8877 200.987 81.1854 201.417 81.3907ZM204.157 80.3646C203.779 80.6342 203.343 80.769 202.848 80.769C202.361 80.769 201.926 80.6362 201.544 80.3706C201.166 80.101 200.868 79.6966 200.651 79.1575C200.437 78.6143 200.331 77.9342 200.331 77.1174C200.331 76.3006 200.437 75.6246 200.651 75.0894C200.868 74.5543 201.166 74.1559 201.544 73.8944C201.926 73.6328 202.361 73.5021 202.848 73.5021C203.339 73.5021 203.773 73.6328 204.151 73.8944C204.53 74.1559 204.825 74.5543 205.039 75.0894C205.256 75.6246 205.365 76.3006 205.365 77.1174C205.365 77.9302 205.258 78.6082 205.045 79.1514C204.831 79.6906 204.536 80.095 204.157 80.3646ZM207.874 72.6752V81.5778H208.882V77.7753H210.783C211.238 77.7753 211.59 77.8719 211.84 78.065C212.089 78.2582 212.214 78.5519 212.214 78.9462V79.8998V80.8475C212.214 81.0245 212.228 81.1774 212.256 81.3062C212.284 81.4349 212.312 81.5255 212.341 81.5778H213.379C213.343 81.5335 213.31 81.445 213.282 81.3122C213.254 81.1754 213.24 81.0205 213.24 80.8475V79.8335V78.8195C213.24 78.4614 213.169 78.1757 213.029 77.9624C212.888 77.7492 212.711 77.5922 212.498 77.4916C212.288 77.387 212.075 77.3267 211.858 77.3106C212.071 77.2864 212.302 77.1838 212.552 77.0027C212.805 76.8217 213.021 76.5662 213.198 76.2362C213.379 75.9022 213.469 75.4979 213.469 75.0231C213.469 74.2304 213.256 73.6409 212.829 73.2546C212.403 72.8683 211.781 72.6752 210.964 72.6752H207.874ZM208.882 76.87H210.795C211.093 76.87 211.363 76.7975 211.604 76.6527C211.85 76.5038 212.045 76.2986 212.19 76.037C212.339 75.7715 212.413 75.4616 212.413 75.1076C212.413 74.5563 212.268 74.164 211.978 73.9306C211.689 73.6972 211.27 73.5805 210.723 73.5805H208.882V76.87ZM216.592 81.1553C217.136 81.5174 217.739 81.6985 218.403 81.6985C218.801 81.6985 219.143 81.6542 219.429 81.5657C219.715 81.4731 219.948 81.3625 220.129 81.2337C220.314 81.105 220.457 80.9802 220.558 80.8595C220.658 80.7388 220.725 80.6483 220.757 80.5879L220.811 81.5778H221.578V77.3709H218.47V78.234H220.648V79.1695C220.6 79.411 220.491 79.6564 220.322 79.9059C220.153 80.1513 219.914 80.3565 219.604 80.5215C219.298 80.6865 218.906 80.769 218.427 80.769C218.065 80.769 217.727 80.6966 217.413 80.5517C217.103 80.4068 216.832 80.1855 216.598 79.8878C216.365 79.59 216.182 79.2138 216.049 78.7591C215.916 78.3004 215.85 77.7592 215.85 77.1355C215.85 76.3227 215.969 75.6488 216.206 75.1136C216.448 74.5744 216.767 74.172 217.166 73.9065C217.568 73.6409 218.013 73.5081 218.5 73.5081C218.862 73.5081 219.174 73.5685 219.435 73.6892C219.701 73.8099 219.92 73.9708 220.093 74.172C220.266 74.3692 220.393 74.5905 220.473 74.836C220.558 75.0774 220.6 75.3188 220.6 75.5602V75.5964V75.6327H221.602V75.5964V75.5602C221.602 75.2584 221.546 74.9365 221.433 74.5945C221.32 74.2485 221.139 73.9226 220.89 73.6168C220.644 73.3069 220.324 73.0554 219.93 72.8623C219.54 72.6651 219.063 72.5666 218.5 72.5666C217.808 72.5666 217.182 72.7496 216.623 73.1158C216.067 73.4779 215.627 73.999 215.301 74.679C214.975 75.359 214.812 76.1779 214.812 77.1355C214.812 78.0932 214.973 78.912 215.295 79.592C215.617 80.272 216.049 80.7931 216.592 81.1553ZM224.975 72.651L222.524 81.5778H223.586L224.214 79.2178H227.327L227.95 81.5778H229.012L226.58 72.651H224.975ZM227.089 78.3125L225.777 73.3438L224.455 78.3125H227.089ZM230.237 81.5778H231.239V73.4782L234.914 81.5778H236.622V72.6752H235.621V80.8137L231.921 72.6752H230.237V81.5778ZM238.366 72.6752V81.5778H239.38V72.6752H238.366ZM246.247 80.6724H242.065V80.6543L246.308 73.4659V72.6752H241.184V73.5805H245.157L240.906 80.769V81.5778H246.247V80.6724ZM248.822 73.5805H252.654V72.6752H247.79V81.5778H252.654V80.6724H248.822V77.5641H251.984V76.6587H248.822V73.5805ZM254.356 72.6752V81.5778H255.364V77.7753H257.265C257.72 77.7753 258.072 77.8719 258.321 78.065C258.571 78.2582 258.695 78.5519 258.695 78.9462V79.8998V80.8475C258.695 81.0245 258.709 81.1774 258.738 81.3062C258.766 81.4349 258.794 81.5255 258.822 81.5778H259.86C259.824 81.5335 259.792 81.445 259.764 81.3122C259.736 81.1754 259.721 81.0205 259.721 80.8475V79.8335V78.8195C259.721 78.4614 259.651 78.1757 259.51 77.9624C259.369 77.7492 259.192 77.5922 258.979 77.4916C258.77 77.387 258.557 77.3267 258.339 77.3106C258.553 77.2864 258.784 77.1838 259.033 77.0027C259.287 76.8217 259.502 76.5662 259.679 76.2362C259.86 75.9022 259.951 75.4979 259.951 75.0231C259.951 74.2304 259.738 73.6409 259.311 73.2546C258.884 72.8683 258.263 72.6752 257.446 72.6752H254.356ZM255.364 76.87H257.277C257.575 76.87 257.844 76.7975 258.086 76.6527C258.331 76.5038 258.526 76.2986 258.671 76.037C258.82 75.7715 258.895 75.4616 258.895 75.1076C258.895 74.5563 258.75 74.164 258.46 73.9306C258.17 73.6972 257.752 73.5805 257.205 73.5805H255.364V76.87Z" fill="black"></path><ellipse cx="191.491" cy="61.3301" rx="2.39573" ry="2.38588" fill="black"></ellipse></svg> 